<svg xmlns="http://www.w3.org/2000/svg" viewBox="0 0 39 39"><defs><style>.a{fill:#ebebeb;}</style></defs><title>coffee-icon-divider</title><path class="a" d="M23.16,34.12A15.82,15.82,0,0,1,9.75,26.7v.11H7.31A7.31,7.31,0,0,1,0,19.5V14.62a2.43,2.43,0,0,1,2.44-2.43H37.78A1.22,1.22,0,0,1,39,13.41v4.87A15.84,15.84,0,0,1,23.16,34.12ZM7.31,18.28V14.62H3.66a1.22,1.22,0,0,0-1.22,1.22V19.5a4.87,4.87,0,0,0,4.87,4.87H8.53A15.8,15.8,0,0,1,7.31,18.28Zm29.25-3.66H9.75v3.66a13.4,13.4,0,1,0,26.81,0ZM30.47,9.75a1.22,1.22,0,0,1-1.22-1.22V6.09a1.22,1.22,0,0,1,2.44,0V8.53A1.22,1.22,0,0,1,30.47,9.75Zm-7.31,0a1.22,1.22,0,0,1-1.22-1.22V1.22a1.22,1.22,0,1,1,2.43,0V8.53A1.22,1.22,0,0,1,23.16,9.75Zm-7.32,0a1.22,1.22,0,0,1-1.22-1.22V3.66a1.22,1.22,0,1,1,2.44,0V8.53A1.22,1.22,0,0,1,15.84,9.75ZM8.53,36.56H37.78a1.22,1.22,0,0,1,0,2.44H8.53a1.22,1.22,0,0,1,0-2.44Z"/></svg>