<svg xmlns="http://www.w3.org/2000/svg" viewBox="0 0 24 30">
  <path d="M5.15 29.81a.24.24 0 0 0 .42.1 18.25 18.25 0 0 0 3.22-5.64c.22-.77 1.25-4.74 1.25-4.74a5.16 5.16 0 0 0 4.35 2.15c5.72 0 9.61-5 9.61-11.81C24 4.76 19.53 0 12.73 0 4.27 0 0 5.87 0 10.76c0 3 1.16 5.6 3.64 6.58a.62.62 0 0 0 .89-.43c.08-.3.28-1.06.37-1.38a.82.82 0 0 0-.26-1 4.87 4.87 0 0 1-1.18-3.38c0-4.36 3.37-8.25 8.77-8.25 4.78 0 7.41 2.83 7.41 6.6 0 5-2.27 9.16-5.64 9.16a2.69 2.69 0 0 1-2.81-3.32c.54-2.18 1.57-4.54 1.57-6.11a2.34 2.34 0 0 0-2.4-2.59c-1.9 0-3.44 1.91-3.44 4.46a6.45 6.45 0 0 0 .57 2.73L5.2 23.22a18.74 18.74 0 0 0-.06 6.55" fill="#efefef"/>
</svg>
