<svg xmlns="http://www.w3.org/2000/svg" viewBox="0 0 30 24">
  <path d="M29.17.44a12.44 12.44 0 0 1-3.91 1.47A6.19 6.19 0 0 0 20.77 0a6.06 6.06 0 0 0-6 7.44A17.57 17.57 0 0 1 2.08 1.11a6 6 0 0 0-.83 3 6 6 0 0 0 2.74 5 6.22 6.22 0 0 1-2.79-.76v.08a6.09 6.09 0 0 0 4.94 5.94 6.31 6.31 0 0 1-2.78.1 6.15 6.15 0 0 0 5.75 4.21 12.48 12.48 0 0 1-7.65 2.59 12.78 12.78 0 0 1-1.47-.08 17.64 17.64 0 0 0 9.44 2.72A17.25 17.25 0 0 0 26.94 6.67v-.78a12.35 12.35 0 0 0 3.07-3.14 12.36 12.36 0 0 1-3.54 1A6.09 6.09 0 0 0 29.18.4" fill="#efefef"/>
</svg>
